<svg width="72" height="59" viewBox="0 0 72 59" fill="none" xmlns="http://www.w3.org/2000/svg">
<path d="M6.69656 1.09577C6.69656 0.490704 7.20028 0.000136878 7.82156 0.000136878H22.8601C23.4814 0.000136878 23.9851 0.490704 23.9851 1.09577C23.9851 1.70083 23.4814 2.19139 22.8601 2.19139H7.82156C7.20028 2.19139 6.69656 1.70083 6.69656 1.09577ZM72 15.2978V43.7023C72 44.0937 71.7855 44.4554 71.4375 44.6511L46.1791 58.8532C46.005 58.9511 45.8108 59 45.6166 59C45.4224 59 45.2282 58.9511 45.0541 58.8532L20.0568 44.7978H1.125C0.503719 44.7978 0 44.3072 0 43.7022C0 43.0971 0.503719 42.6065 1.125 42.6065H19.2334V30.5956H7.82142C7.20014 30.5956 6.69642 30.1051 6.69642 29.4999C6.69642 28.8947 7.20014 28.4043 7.82142 28.4043H19.2333V16.3933H1.125C0.503719 16.3933 0 15.9028 0 15.2977C0 14.6927 0.503719 14.2021 1.125 14.2021H20.0569L41.418 2.19126H31.3124C30.6911 2.19126 30.1874 1.70069 30.1874 1.09563C30.1874 0.490568 30.6911 0 31.3124 0H45.6165C45.8108 0 46.011 0.0523161 46.179 0.146814L71.4375 14.349C71.7855 14.5447 72 14.9064 72 15.2978ZM45.6166 2.36081L38.7852 6.20194L61.9054 19.0761L68.625 15.2978L45.6166 2.36081ZM52.3252 24.4629L29.205 11.5887L22.6084 15.2978L45.6168 28.2349L52.3252 24.4629ZM59.65 20.3442L36.5299 7.46999L31.4605 10.3204L54.5806 23.1946L59.65 20.3442ZM55.7083 33.7456L60.7832 30.8921V22.2373L55.7083 25.0907V33.7456ZM21.4834 43.0697L44.4918 56.0067V30.1325L21.4834 17.1955V43.0697ZM69.75 43.0697V17.1955L63.0332 20.9721V31.5247C63.0332 31.9161 62.8187 32.2778 62.4707 32.4735L55.1458 36.5921C54.9717 36.69 54.7775 36.7389 54.5833 36.7389C54.3891 36.7389 54.1949 36.69 54.0208 36.5921C53.6728 36.3964 53.4583 36.0348 53.4583 35.6433V26.3559L46.7416 30.1325V56.0067L69.75 43.0697ZM36.5199 29.382L25.296 23.0711C24.7579 22.7684 24.0701 22.9481 23.7593 23.4721C23.4487 23.996 23.633 24.6662 24.171 24.9687L35.3949 31.2795C35.5721 31.3792 35.7654 31.4265 35.9564 31.4265C36.3452 31.4265 36.7234 31.2299 36.9318 30.8785C37.2423 30.3547 37.0579 29.6847 36.5199 29.382ZM30.9081 31.2591L25.2962 28.1035C24.758 27.8009 24.0702 27.9804 23.7594 28.5046C23.4488 29.0285 23.6332 29.6987 24.1712 30.0012L29.7831 33.1566C29.9603 33.2563 30.1537 33.3035 30.3446 33.3035C30.7335 33.3035 31.1116 33.107 31.32 32.7556C31.6305 32.2316 31.4461 31.5616 30.9081 31.2591Z" fill="#6C6CB0"/>
</svg>
